<svg width="19" height="24" viewBox="0 0 19 24" fill="none" xmlns="http://www.w3.org/2000/svg">
<path d="M4.73113 21.5948C4.28976 21.7971 3.81181 21.9074 3.32641 21.919C2.57867 21.919 1.05725 20.3738 1.05725 20.3738C1.05725 20.3738 1.00214 20.2074 1.121 19.585C1.23986 18.9626 2.35716 13.2519 2.35716 13.2519C2.35716 13.2519 2.48898 11.9228 3.24429 11.107C3.9996 10.2912 5.48211 10.0005 5.48211 10.0005C5.48211 10.0005 8.76051 8.5731 10.5996 9.01396C12.4366 9.74333 14.4431 10.4846 15.1131 11.0594C15.783 11.6343 17.4298 16.2461 18.0003 18.6147C18.0003 18.6147 16.7436 21.2847 15.5712 22.0346C14.3988 22.7845 11.5732 22.5403 11.5732 22.5403L4.73113 21.5948Z" fill="#A431FF"/>
<path d="M12.3832 13.2423C12.4368 13.2591 12.463 13.2958 12.463 13.3798V13.636C12.4604 13.6504 12.4613 13.6652 12.4657 13.6791C12.47 13.6931 12.4777 13.7057 12.488 13.7161C12.4983 13.7264 12.511 13.734 12.525 13.7384C12.5389 13.7428 12.5537 13.7437 12.568 13.741H12.5964V13.8765H12.5281C12.4978 13.881 12.4668 13.8785 12.4375 13.8692C12.4082 13.8598 12.3815 13.8439 12.3594 13.8226C12.3373 13.8013 12.3204 13.7752 12.3099 13.7463C12.2995 13.7174 12.2958 13.6865 12.2992 13.656V13.3788C12.2992 13.3336 12.2761 13.3137 12.2383 13.3137H12.1942V13.1761H12.2383C12.2761 13.1761 12.2992 13.1562 12.2992 13.111V12.8338C12.2958 12.8033 12.2995 12.7724 12.3099 12.7435C12.3204 12.7146 12.3373 12.6885 12.3594 12.6672C12.3815 12.6459 12.4082 12.63 12.4375 12.6206C12.4668 12.6113 12.4978 12.6087 12.5281 12.6133H12.5964V12.7487H12.568C12.5537 12.7461 12.5389 12.747 12.525 12.7514C12.511 12.7557 12.4983 12.7634 12.488 12.7737C12.4777 12.7841 12.47 12.7967 12.4657 12.8107C12.4613 12.8246 12.4604 12.8394 12.463 12.8537V13.11C12.463 13.1877 12.4368 13.2244 12.3832 13.2423Z" fill="#263238"/>
<path d="M13.4125 13.1731V13.3075H13.3663C13.3296 13.3075 13.3065 13.3274 13.3065 13.3726V13.6498C13.3099 13.6804 13.3062 13.7114 13.2957 13.7404C13.2852 13.7694 13.2682 13.7955 13.246 13.8169C13.2237 13.8382 13.1969 13.8541 13.1675 13.8634C13.1381 13.8726 13.1069 13.875 13.0765 13.8703H13.0082V13.738H13.0366C13.0509 13.7404 13.0656 13.7393 13.0794 13.7348C13.0932 13.7304 13.1058 13.7227 13.1161 13.7124C13.1263 13.7022 13.134 13.6896 13.1384 13.6758C13.1429 13.662 13.144 13.6473 13.1416 13.633V13.3768C13.1416 13.2928 13.1657 13.256 13.2193 13.2392C13.1657 13.2214 13.1416 13.1846 13.1416 13.1006V12.8444C13.144 12.8301 13.1429 12.8154 13.1384 12.8016C13.134 12.7877 13.1263 12.7752 13.1161 12.7649C13.1058 12.7547 13.0932 12.747 13.0794 12.7425C13.0656 12.7381 13.0509 12.737 13.0366 12.7394H13.0082V12.6039H13.0765C13.1069 12.5992 13.1381 12.6016 13.1675 12.6108C13.1969 12.6201 13.2237 12.636 13.246 12.6574C13.2682 12.6787 13.2852 12.7049 13.2957 12.7338C13.3062 12.7628 13.3099 12.7938 13.3065 12.8244V13.1016C13.3065 13.1468 13.3296 13.1668 13.3663 13.1668L13.4125 13.1731Z" fill="#263238"/>
<path opacity="0.3" d="M4.31478 16.9539L3.84041 10.6597C3.52991 10.7854 3.25466 10.9848 3.03837 11.2406C2.82208 11.4965 2.67124 11.8011 2.59886 12.1281C2.35357 13.2541 0.869973 20.1837 1.05367 20.376C1.23736 20.5683 2.20446 21.3971 2.20446 21.3971C2.20446 21.3971 3.24719 22.2886 4.31478 21.7559C5.38236 21.2232 4.31478 16.9539 4.31478 16.9539Z" fill="#2B2B2B"/>
<path opacity="0.3" d="M9.02177 11.243C8.96666 11.431 8.73002 11.4916 8.53336 11.4937C7.96821 11.4998 7.42013 11.3001 6.99141 10.9318C6.91361 10.8638 5.52294 11.7228 5.36302 11.8082C5.11017 11.9443 4.86273 12.0934 4.60664 12.2198C4.36675 12.3376 4.13983 12.396 3.98315 12.6337C3.87931 12.809 3.80107 12.9982 3.75084 13.1956C3.4137 14.2999 3.0582 15.401 2.75132 16.5129C2.48551 17.4757 2.12785 18.5411 2.14297 19.5514C2.14313 19.6237 2.14819 19.6959 2.1581 19.7675C2.37421 21.0588 4.73198 21.5947 4.73198 21.5947C4.73198 21.5947 3.89779 22.1058 3.32726 21.9189C2.75673 21.732 1.42333 20.9691 1.00299 20.2559L2.16026 14.2048C2.16026 14.2048 2.14622 11.2873 4.24897 10.4229C6.35173 9.55845 7.17727 9.42554 7.17727 9.42554L9.02177 11.243Z" fill="#2B2B2B"/>
<path opacity="0.3" d="M16.781 20.7617C16.781 20.7617 17.6995 19.747 17.9967 18.6168C17.9967 18.6168 16.5919 13.9769 16.2267 13.106C15.8615 12.235 15.2704 11.2463 14.8566 10.8228L14.1845 20.3727L14.0429 22.3825C14.0429 22.3825 14.7993 22.4138 15.3234 22.1664C15.8474 21.919 16.781 20.7617 16.781 20.7617Z" fill="#2B2B2B"/>
<path d="M14.0429 22.3857L14.8565 10.8238C14.8565 10.8238 10.9168 8.98683 9.88599 8.81178C8.85514 8.63673 3.84894 10.6098 3.84894 10.6098L4.57723 21.6985" stroke="#263238" stroke-width="0.160038" stroke-linecap="round" stroke-linejoin="round"/>
<path d="M6.94163 3.16928L6.5375 5.10887C6.5375 5.10887 6.01884 4.74257 5.90862 5.15642C5.79841 5.57027 6.13554 6.13972 6.78711 6.17106C6.78711 6.17106 6.96432 7.04954 7.5435 7.64601C7.81615 7.93697 8.10474 8.21258 8.40794 8.47155C8.40794 8.47155 8.63594 9.94435 9.38044 10.0005C10.1249 10.0567 10.2697 9.38678 10.4199 8.45535C10.4199 8.45535 11.0629 7.34021 11.2509 6.73727C11.2509 6.73727 12.0397 6.18726 11.5134 5.38441C11.5134 5.38441 11.7739 3.46427 11.3211 3.1401C10.8684 2.81594 7.73151 2.98126 6.94163 3.16928Z" fill="white"/>
<path d="M9.34364 10.1538C9.34364 10.1538 9.09404 11.4116 8.93844 11.4429C8.78284 11.4742 8.16692 10.8864 7.62881 10.1538C7.09069 9.4212 7.17389 9.42012 7.17389 9.42012C7.17389 9.42012 7.4235 8.45842 7.62881 8.31795C7.83411 8.17748 8.57429 8.19477 8.57429 8.19477L10.1951 8.13318C10.1951 8.13318 10.7354 8.05646 11.0693 8.27149C11.4032 8.48652 11.5653 9.42012 11.5653 9.42012C11.5653 9.42012 10.5928 11.2128 9.79964 11.4429C9.62283 11.0224 9.47057 10.592 9.34364 10.1538Z" fill="white"/>
<path d="M4.0304 19.598L4.24542 16.5811" stroke="#263238" stroke-width="0.160038" stroke-miterlimit="10"/>
<path d="M11.5656 3.72449C11.5656 3.72449 10.645 4.08108 9.83132 4.013C9.83132 4.013 8.97228 4.87744 7.87228 4.36418C7.87228 4.36418 6.88033 7.05044 9.15489 8.80742C8.57957 8.58671 8.0649 8.23248 7.65329 7.7739C7.24168 7.31533 6.94491 6.76553 6.7874 6.16979C6.7874 6.16979 6.13907 6.27028 5.90891 5.30534C5.90891 5.30534 5.72198 4.93255 6.57453 4.93039L6.5378 3.06104L8.72807 3.50082L10.3003 3.27066L11.5656 3.72449Z" fill="#A431FF"/>
<path opacity="0.4" d="M11.5655 3.72467C11.5655 3.72467 10.6448 4.08125 9.83118 4.01317C9.83118 4.01317 8.97214 4.87762 7.87214 4.36435C7.87214 4.36435 7.07037 7.24079 9.06075 8.75896C9.06075 8.75896 7.25514 8.13332 6.78618 6.16563C6.78618 6.16563 6.14433 6.09756 5.90769 5.30119C5.90769 5.30119 5.72076 4.9284 6.57331 4.92624L6.53657 3.05688L8.72685 3.49667L10.2991 3.26651L11.5655 3.72467Z" fill="white"/>
<path d="M9.06183 7.44827C9.13318 7.50592 9.20787 7.55932 9.2855 7.60819C9.33629 7.6406 9.41301 7.66654 9.44867 7.61899C9.46086 7.59958 9.46723 7.57708 9.46704 7.55416C9.49945 7.02361 9.37519 6.48766 9.45083 5.96143" stroke="#263238" stroke-width="0.160038" stroke-linecap="round" stroke-linejoin="round"/>
<path d="M9.79999 5.65998C9.79999 5.65998 10.0636 5.07864 10.7433 5.60055" stroke="#263238" stroke-width="0.320076" stroke-linecap="round" stroke-linejoin="round"/>
<path d="M8.94512 5.76268C8.94512 5.76268 8.44807 5.1446 7.83215 5.78213" stroke="#263238" stroke-width="0.320076" stroke-linecap="round" stroke-linejoin="round"/>
<path d="M8.27386 8.37846C8.27386 8.37846 8.5386 9.96363 9.4722 10.0123C10.2286 10.0512 10.3777 8.74044 10.4069 8.27148" stroke="#263238" stroke-width="0.160038" stroke-linecap="round" stroke-linejoin="round"/>
<path d="M6.66481 5.28501C6.66481 5.28501 6.25312 4.79336 5.97434 5.03324C5.69555 5.27312 6.11373 6.3299 6.78691 6.16998" stroke="#263238" stroke-width="0.160038" stroke-linecap="round" stroke-linejoin="round"/>
<path d="M8.44818 7.64478C8.65131 7.88972 8.92916 8.06129 9.23915 8.13318" stroke="#263238" stroke-width="0.160038" stroke-linecap="round" stroke-linejoin="round"/>
<path d="M8.40275 6.72532C8.46183 6.72532 8.50973 6.62372 8.50973 6.4984C8.50973 6.37308 8.46183 6.27148 8.40275 6.27148C8.34367 6.27148 8.29578 6.37308 8.29578 6.4984C8.29578 6.62372 8.34367 6.72532 8.40275 6.72532Z" fill="#263238"/>
<path d="M10.2438 6.4985C10.2438 6.62385 10.1952 6.72542 10.1358 6.72542C10.0763 6.72542 10.0277 6.62385 10.0277 6.4985C10.0277 6.37316 10.0753 6.27051 10.1358 6.27051C10.1963 6.27051 10.2438 6.37316 10.2438 6.4985Z" fill="#263238"/>
<path d="M9.37371 9.9994C9.37371 9.9994 9.11437 11.4117 8.94149 11.443C8.7686 11.4744 7.43843 10.2685 7.17694 9.42022C7.17694 9.42022 7.45788 8.31157 7.71722 8.27159C7.83932 8.25214 7.97979 8.23377 8.09109 8.21973" stroke="#263238" stroke-width="0.160038" stroke-linecap="round" stroke-linejoin="round"/>
<path d="M9.37433 9.99946C9.37433 9.99946 9.62502 11.4117 9.80007 11.4431C9.97512 11.4744 11.3042 10.2685 11.5657 9.42029C11.5657 9.42029 11.248 8.3192 11.007 8.22627C10.8533 8.16862 10.695 8.1238 10.5338 8.09229" stroke="#263238" stroke-width="0.160038" stroke-linecap="round" stroke-linejoin="round"/>
<path d="M6.9146 6.52535C7.08533 6.82142 7.29712 5.77869 7.20743 5.4448C7.14692 5.22868 7.02914 5.01906 7.01833 4.79646C7.00753 4.54361 7.12639 4.30697 7.21932 4.07033C7.31225 3.83369 7.36087 3.55167 7.21932 3.33988C7.71002 3.68694 8.2861 3.89354 8.88553 3.93742C9.03838 3.95894 9.19409 3.94639 9.34152 3.90069C9.41457 3.87666 9.4802 3.8342 9.53206 3.77742C9.58392 3.72064 9.62027 3.65144 9.6376 3.57652C10.1995 3.64784 10.756 3.72131 11.3157 3.64459C11.7857 3.58084 12.5162 3.46198 12.7572 2.98222C13.1105 2.28202 12.2007 1.5548 11.6636 1.30952C10.367 0.716296 8.61431 0.615805 7.44299 1.54724C7.32281 1.65143 7.19691 1.74883 7.06588 1.83899C6.80763 2.00107 6.21981 2.12642 6.01342 2.35225C5.7368 2.65589 6.08366 5.00069 6.08366 5.00069C6.08366 5.00069 6.53533 4.79106 6.72118 5.49018C6.85085 5.9613 6.74171 6.22712 6.9146 6.52535Z" fill="#263238"/>
<path d="M11.1636 3.49342C11.156 3.52246 11.1509 3.55211 11.1484 3.58202C11.1364 3.84798 11.1681 4.1141 11.2424 4.36975C11.2716 4.48428 11.3138 4.59558 11.3321 4.71228C11.3753 4.98998 11.3753 5.25796 11.5806 5.4838C11.5806 5.4838 11.974 4.10825 11.8151 3.12495C11.7968 3.01689 11.7611 2.72514 11.5871 2.77809C11.4596 2.81699 11.371 3.03526 11.3148 3.14116C11.2522 3.25293 11.2015 3.371 11.1636 3.49342Z" fill="#263238"/>
<path d="M5.73444 2.19668C5.90837 2.07592 6.10852 1.99825 6.31838 1.97007C6.52823 1.94189 6.74178 1.96401 6.94141 2.0346C7.25538 1.47542 7.69252 0.995039 8.21971 0.629883" stroke="#263238" stroke-width="0.160038" stroke-linecap="round" stroke-linejoin="round"/>
<path opacity="0.47" d="M7.4248 1.86597C7.4248 1.86597 9.54269 3.37226 10.8253 2.99947C12.1079 2.62668 11.7492 1.52344 11.7492 1.52344" stroke="white" stroke-width="0.160038" stroke-linecap="round" stroke-linejoin="round"/>
<path opacity="0.47" d="M7.62878 1.61333C7.62878 1.61333 10.288 2.83543 10.7354 1.10547" stroke="white" stroke-width="0.160038" stroke-linecap="round" stroke-linejoin="round"/>
<path d="M8.27386 8.37846C8.27386 8.37846 8.77956 9.36068 9.17612 9.34447C9.57269 9.32826 10.2999 8.27148 10.2999 8.27148C10.2999 8.27148 9.90766 8.77718 9.31227 8.82905C8.92003 8.86363 8.27386 8.37846 8.27386 8.37846Z" fill="#263238"/>
<path d="M4.05361 19.1917C3.9654 19.2889 3.86887 19.3782 3.7651 19.4585C3.4838 19.731 3.27282 20.0677 3.15027 20.4397C3.08972 20.6117 3.08972 20.7993 3.15027 20.9713C3.28102 21.2955 3.69595 21.6197 4.02768 21.4122" stroke="#263238" stroke-width="0.160038" stroke-linecap="round" stroke-linejoin="round"/>
<path d="M4.0273 18.6212C3.7107 18.5715 3.3995 18.7552 3.18339 18.9897C2.96728 19.2242 2.81708 19.5137 2.62042 19.7655" stroke="#263238" stroke-width="0.160038" stroke-linecap="round" stroke-linejoin="round"/>
<path d="M4.00252 21.8703C3.58107 21.9522 3.14473 21.9055 2.75016 21.7363C2.50019 21.6019 2.26728 21.4379 2.05644 21.2479L1.23522 20.5693C1.10339 20.4612 0.957519 20.3046 1.01155 20.1425C1.01155 20.1425 2.38385 12.9103 2.59888 12.128C2.84849 11.2257 3.8534 10.6152 3.8534 10.6152" stroke="#263238" stroke-width="0.160038" stroke-linecap="round" stroke-linejoin="round"/>
<path d="M14.299 19.2695C14.6524 19.5352 14.9227 19.8962 15.0781 20.3101C15.201 20.6941 15.2833 21.09 15.3234 21.4911C15.1073 21.61 14.675 21.9234 14.299 21.9234" stroke="#263238" stroke-width="0.160038" stroke-linecap="round" stroke-linejoin="round"/>
<path d="M14.3459 18.6676C14.6787 18.579 15.0083 18.8059 15.26 19.0414C15.5118 19.277 15.7701 19.5504 16.1126 19.5871" stroke="#263238" stroke-width="0.160038" stroke-linecap="round" stroke-linejoin="round"/>
<path d="M14.4093 22.4257C15.0576 22.3577 15.6411 22.0043 16.1079 21.5537C16.5747 21.1031 16.9335 20.5564 17.289 20.015C17.5775 19.5763 17.8703 19.1257 17.9967 18.6168C17.9967 18.6168 16.8589 14.8554 16.2268 13.106C15.5677 11.2874 14.8566 10.8228 14.8566 10.8228" stroke="#263238" stroke-width="0.160038" stroke-linecap="round" stroke-linejoin="round"/>
<path d="M14.3459 18.6677C14.9326 18.1749 15.8327 18.5737 16.4638 18.9043" stroke="#263238" stroke-width="0.160038" stroke-linecap="round" stroke-linejoin="round"/>
<path d="M7.8511 15.1577C7.82539 15.1577 7.80383 15.149 7.78642 15.1316C7.769 15.1142 7.7603 15.0926 7.7603 15.0669C7.7603 15.0412 7.769 15.0196 7.78642 15.0022C7.80383 14.9848 7.82539 14.9761 7.8511 14.9761C7.87597 14.9761 7.89712 14.9848 7.91453 15.0022C7.93194 15.0196 7.94065 15.0412 7.94065 15.0669C7.94065 15.0926 7.93194 15.1142 7.91453 15.1316C7.89712 15.149 7.87597 15.1577 7.8511 15.1577ZM7.92075 15.2485V15.9338H7.77895V15.2485H7.92075ZM8.20861 15.4997C8.20861 15.4152 8.2281 15.3393 8.26707 15.2721C8.30688 15.205 8.36036 15.1527 8.42752 15.1154C8.49552 15.0773 8.56973 15.0582 8.65017 15.0582C8.74221 15.0582 8.82389 15.081 8.8952 15.1266C8.96734 15.1714 9.01958 15.2352 9.05192 15.3182H8.88152C8.85913 15.2725 8.82803 15.2385 8.78823 15.2162C8.74843 15.1938 8.70241 15.1826 8.65017 15.1826C8.59295 15.1826 8.54196 15.1954 8.49718 15.2211C8.4524 15.2468 8.41716 15.2837 8.39145 15.3318C8.36658 15.3799 8.35414 15.4359 8.35414 15.4997C8.35414 15.5636 8.36658 15.6196 8.39145 15.6677C8.41716 15.7158 8.4524 15.7531 8.49718 15.7796C8.54196 15.8053 8.59295 15.8182 8.65017 15.8182C8.70241 15.8182 8.74843 15.807 8.78823 15.7846C8.82803 15.7622 8.85913 15.7282 8.88152 15.6826H9.05192C9.01958 15.7655 8.96734 15.8294 8.8952 15.8741C8.82389 15.9189 8.74221 15.9413 8.65017 15.9413C8.5689 15.9413 8.49469 15.9226 8.42752 15.8853C8.36036 15.8472 8.30688 15.7945 8.26707 15.7274C8.2281 15.6602 8.20861 15.5843 8.20861 15.4997ZM9.42809 15.945C9.36342 15.945 9.30496 15.9305 9.25272 15.9015C9.20048 15.8716 9.15943 15.8302 9.12958 15.7771C9.09973 15.7232 9.0848 15.661 9.0848 15.5905C9.0848 15.5209 9.10014 15.4591 9.13082 15.4052C9.1615 15.3513 9.20338 15.3099 9.25645 15.2808C9.30952 15.2518 9.3688 15.2373 9.43431 15.2373C9.49982 15.2373 9.55911 15.2518 9.61218 15.2808C9.66525 15.3099 9.70712 15.3513 9.7378 15.4052C9.76848 15.4591 9.78382 15.5209 9.78382 15.5905C9.78382 15.6602 9.76807 15.722 9.73656 15.7759C9.70505 15.8298 9.66193 15.8716 9.6072 15.9015C9.5533 15.9305 9.4936 15.945 9.42809 15.945ZM9.42809 15.8219C9.46458 15.8219 9.49858 15.8132 9.53009 15.7958C9.56242 15.7784 9.58855 15.7522 9.60845 15.7174C9.62835 15.6826 9.6383 15.6403 9.6383 15.5905C9.6383 15.5408 9.62876 15.4989 9.60969 15.4649C9.59062 15.4301 9.56533 15.404 9.53382 15.3866C9.50231 15.3691 9.46831 15.3604 9.43182 15.3604C9.39534 15.3604 9.36134 15.3691 9.32983 15.3866C9.29915 15.404 9.27469 15.4301 9.25645 15.4649C9.2382 15.4989 9.22908 15.5408 9.22908 15.5905C9.22908 15.6643 9.24774 15.7216 9.28506 15.7622C9.3232 15.802 9.37088 15.8219 9.42809 15.8219ZM9.78966 15.5881C9.78966 15.5192 9.80376 15.4583 9.83195 15.4052C9.86098 15.3521 9.89995 15.3111 9.94887 15.2821C9.99862 15.2522 10.0538 15.2373 10.1143 15.2373C10.1591 15.2373 10.203 15.2473 10.2461 15.2672C10.2901 15.2862 10.3249 15.3119 10.3506 15.3443V15.0134H10.4937V15.9338H10.3506V15.8306C10.3274 15.8638 10.2951 15.8911 10.2536 15.9127C10.213 15.9343 10.1661 15.945 10.1131 15.945C10.0534 15.945 9.99862 15.9301 9.94887 15.9003C9.89995 15.8696 9.86098 15.8273 9.83195 15.7734C9.80376 15.7187 9.78966 15.6569 9.78966 15.5881ZM10.3506 15.5905C10.3506 15.5433 10.3407 15.5022 10.3208 15.4674C10.3017 15.4326 10.2764 15.406 10.2449 15.3878C10.2134 15.3696 10.1794 15.3604 10.1429 15.3604C10.1064 15.3604 10.0724 15.3696 10.0409 15.3878C10.0094 15.4052 9.9837 15.4313 9.9638 15.4662C9.94473 15.5002 9.93519 15.5408 9.93519 15.5881C9.93519 15.6353 9.94473 15.6768 9.9638 15.7124C9.9837 15.7481 10.0094 15.7755 10.0409 15.7945C10.0733 15.8128 10.1073 15.8219 10.1429 15.8219C10.1794 15.8219 10.2134 15.8128 10.2449 15.7945C10.2764 15.7763 10.3017 15.7498 10.3208 15.7149C10.3407 15.6793 10.3506 15.6378 10.3506 15.5905ZM11.221 15.5744C11.221 15.6001 11.2193 15.6233 11.216 15.644H10.6923C10.6965 15.6988 10.7168 15.7427 10.7533 15.7759C10.7898 15.809 10.8345 15.8256 10.8876 15.8256C10.9639 15.8256 11.0178 15.7937 11.0493 15.7299H11.2023C11.1816 15.7929 11.1438 15.8447 11.0891 15.8853C11.0352 15.9251 10.9681 15.945 10.8876 15.945C10.8221 15.945 10.7632 15.9305 10.711 15.9015C10.6596 15.8716 10.619 15.8302 10.5891 15.7771C10.5601 15.7232 10.5456 15.661 10.5456 15.5905C10.5456 15.5201 10.5597 15.4583 10.5879 15.4052C10.6169 15.3513 10.6571 15.3099 10.7085 15.2808C10.7608 15.2518 10.8205 15.2373 10.8876 15.2373C10.9523 15.2373 11.0099 15.2514 11.0605 15.2796C11.1111 15.3078 11.1505 15.3476 11.1787 15.399C11.2069 15.4496 11.221 15.508 11.221 15.5744ZM11.0729 15.5296C11.0721 15.4774 11.0535 15.4355 11.017 15.404C10.9805 15.3725 10.9353 15.3567 10.8814 15.3567C10.8325 15.3567 10.7906 15.3725 10.7558 15.404C10.7209 15.4347 10.7002 15.4765 10.6936 15.5296H11.0729Z" fill="#2B2B2B"/>
<path d="M15.5104 16.1345H3.54651V23.0105H15.5104V16.1345Z" fill="white"/>
<path d="M15.5659 23.0105H3.48718V23.3701H15.5659V23.0105Z" fill="#263238"/>
<path d="M3.48761 23.0105L15.512 16.1345L15.5663 23.0105H3.48761Z" fill="#263238"/>
<path opacity="0.9" d="M3.48761 23.0105L15.512 16.1345L15.5663 23.0105H3.48761Z" fill="white"/>
<path d="M15.5104 16.1345H3.54651V23.0105H15.5104V16.1345Z" stroke="#263238" stroke-width="0.186894" stroke-linecap="round" stroke-linejoin="round"/>
<path d="M8.91321 19.9782L8.11009 20.2864L8.91321 20.5856V20.8303L7.83997 20.4134V20.1614L8.91321 19.7444V19.9782Z" fill="#263238"/>
<path d="M9.76184 19.1316H10.0211L9.25241 21.327H8.99316L9.76184 19.1316Z" fill="#263238"/>
<path d="M11.1503 20.1522V20.4041L10.077 20.8211V20.5782L10.8801 20.2791L10.077 19.9781V19.7424L11.1503 20.1522Z" fill="#263238"/>
<path d="M6.61725 4.68848C6.61725 4.68848 6.842 6.74153 7.12727 7.11216C7.41254 7.48279 8.32885 8.82375 9.32728 8.80322C10.3257 8.78269 10.9773 7.499 11.1404 6.94899C11.3435 6.25245 11.4664 5.535 11.5068 4.81058" stroke="#263238" stroke-width="0.160038" stroke-linecap="round" stroke-linejoin="round"/>
<path d="M11.2443 6.73518C11.2443 6.73518 11.9845 6.35266 11.5069 5.38232" stroke="#263238" stroke-width="0.160038" stroke-linecap="round" stroke-linejoin="round"/>
</svg>
