<svg width="38" height="38" viewBox="0 0 38 38" fill="none" xmlns="http://www.w3.org/2000/svg">
<path d="M31.4853 37.9996H6.51421C4.78712 37.9976 3.13132 37.3107 1.91008 36.0895C0.688847 34.8682 0.0019158 33.2124 0 31.4853V6.51421C0.0019158 4.78712 0.688847 3.13132 1.91008 1.91008C3.13132 0.688847 4.78712 0.0019158 6.51421 0L31.4853 0C33.2124 0.0019158 34.8682 0.688847 36.0895 1.91008C37.3107 3.13132 37.9976 4.78712 37.9996 6.51421V31.4853C37.9976 33.2124 37.3107 34.8682 36.0895 36.0895C34.8682 37.3107 33.2124 37.9976 31.4853 37.9996ZM11.4831 15.1745C11.3217 15.1764 11.1676 15.2422 11.0547 15.3576C10.9417 15.4729 10.8791 15.6283 10.8805 15.7897V20.7423C10.8791 20.9037 10.9417 21.059 11.0547 21.1742C11.1677 21.2893 11.3218 21.355 11.4831 21.3567H15.3337V33.8531C15.3323 34.0144 15.3949 34.1697 15.5079 34.2849C15.6209 34.4001 15.775 34.4657 15.9363 34.4674H20.9613C21.1225 34.4655 21.2763 34.3998 21.3891 34.2846C21.5019 34.1694 21.5644 34.0143 21.5629 33.8531V21.3521H26.0659C26.2272 21.3505 26.3813 21.2848 26.4943 21.1696C26.6073 21.0545 26.6699 20.8991 26.6685 20.7378V15.7852C26.668 15.6219 26.6029 15.4655 26.4875 15.35C26.432 15.2931 26.3657 15.2478 26.2926 15.2168C26.2194 15.1857 26.1408 15.1695 26.0614 15.1691H21.5629V12.2739C21.5629 10.8814 21.8887 10.1748 23.6674 10.1748H26.2477C26.4089 10.1729 26.5628 10.1072 26.6755 9.99203C26.7883 9.87687 26.8509 9.72169 26.8494 9.56051V4.96347C26.8509 4.80244 26.7885 4.6474 26.6759 4.53226C26.5633 4.41713 26.4097 4.35129 26.2486 4.34914L22.4179 4.34281C18.114 4.34281 15.3337 7.25339 15.3337 11.7563V15.1745H11.4831Z" fill="#F7F7F7"/>
</svg>
