<svg width="38" height="38" viewBox="0 0 38 38" fill="none" xmlns="http://www.w3.org/2000/svg">
<path d="M31.4853 37.9996H6.51421C4.78712 37.9976 3.13132 37.3107 1.91008 36.0895C0.688847 34.8682 0.0019158 33.2124 0 31.4853V6.51421C0.0019158 4.78712 0.688847 3.13132 1.91008 1.91008C3.13132 0.688847 4.78712 0.0019158 6.51421 0L31.4853 0C33.2124 0.0019158 34.8682 0.688847 36.0895 1.91008C37.3107 3.13132 37.9976 4.78712 37.9996 6.51421V31.4853C37.9976 33.2124 37.3107 34.8682 36.0895 36.0895C34.8682 37.3107 33.2124 37.9976 31.4853 37.9996ZM14.1811 6.33326C12.1004 6.33541 10.1055 7.16293 8.63421 8.63421C7.16293 10.1055 6.33541 12.1004 6.33326 14.1811V24.8282C6.33565 26.9087 7.16312 28.9033 8.63416 30.3745C10.1052 31.8457 12.0997 32.6734 14.1802 32.676H24.8282C26.9088 32.6736 28.9036 31.846 30.3748 30.3748C31.846 28.9036 32.6736 26.9088 32.676 24.8282V14.1811C32.6736 12.1004 31.846 10.1057 30.3748 8.63448C28.9036 7.16324 26.9088 6.33565 24.8282 6.33326H14.1811ZM24.8282 30.026H14.1811C12.803 30.0245 11.4817 29.4765 10.5073 28.502C9.5328 27.5275 8.98471 26.2063 8.98328 24.8282V14.1811C8.98471 12.803 9.5328 11.4817 10.5073 10.5073C11.4817 9.5328 12.803 8.98471 14.1811 8.98328H24.8282C26.2063 8.98471 27.5275 9.5328 28.502 10.5073C29.4765 11.4817 30.0245 12.803 30.026 14.1811V24.8282C30.0245 26.2063 29.4765 27.5275 28.502 28.502C27.5275 29.4765 26.2063 30.0245 24.8282 30.026ZM19.5046 12.6909C18.1572 12.6909 16.84 13.0905 15.7197 13.8391C14.5993 14.5877 13.7261 15.6517 13.2104 16.8966C12.6948 18.1415 12.5599 19.5113 12.8228 20.8328C13.0856 22.1544 13.7345 23.3683 14.6873 24.3211C15.6401 25.2739 16.854 25.9227 18.1755 26.1856C19.4971 26.4485 20.8669 26.3136 22.1118 25.7979C23.3566 25.2823 24.4207 24.4091 25.1692 23.2887C25.9178 22.1683 26.3174 20.8512 26.3174 19.5037C26.3153 17.6975 25.5968 15.9659 24.3196 14.6887C23.0424 13.4116 21.3108 12.6931 19.5046 12.6909ZM26.3283 11.1103C26.0062 11.1103 25.6913 11.2059 25.4235 11.3848C25.1557 11.5638 24.9469 11.8181 24.8237 12.1157C24.7004 12.4133 24.6682 12.7407 24.731 13.0566C24.7938 13.3725 24.9489 13.6627 25.1767 13.8905C25.4045 14.1182 25.6946 14.2733 26.0105 14.3362C26.3265 14.399 26.6539 14.3667 26.9515 14.2435C27.2491 14.1202 27.5034 13.9115 27.6824 13.6437C27.8613 13.3759 27.9568 13.061 27.9568 12.7389C27.9551 12.3075 27.783 11.8942 27.478 11.5892C27.1729 11.2841 26.7597 11.112 26.3283 11.1103ZM19.501 23.6683C18.6779 23.6683 17.8732 23.4242 17.1888 22.9669C16.5044 22.5096 15.971 21.8596 15.656 21.0991C15.341 20.3386 15.2585 19.5018 15.4191 18.6945C15.5797 17.8872 15.9761 17.1456 16.5581 16.5636C17.1402 15.9815 17.8818 15.5851 18.6891 15.4246C19.4964 15.264 20.3332 15.3464 21.0937 15.6614C21.8542 15.9764 22.5042 16.5098 22.9615 17.1942C23.4188 17.8787 23.6629 18.6833 23.6629 19.5064C23.661 20.6089 23.2223 21.6658 22.443 22.4456C21.6637 23.2254 20.6071 23.6648 19.5046 23.6674L19.501 23.6683Z" fill="#F7F7F7"/>
</svg>
