<svg width="38" height="38" viewBox="0 0 38 38" fill="none" xmlns="http://www.w3.org/2000/svg">
<path d="M31.4853 37.9996H6.51421C4.78712 37.9976 3.13132 37.3107 1.91008 36.0895C0.688847 34.8682 0.0019158 33.2124 0 31.4853V6.51421C0.0019158 4.78712 0.688847 3.13132 1.91008 1.91008C3.13132 0.688847 4.78712 0.0019158 6.51421 0L31.4853 0C33.2124 0.0019158 34.8682 0.688847 36.0895 1.91008C37.3107 3.13132 37.9976 4.78712 37.9996 6.51421V31.4853C37.9976 33.2124 37.3107 34.8682 36.0895 36.0895C34.8682 37.3107 33.2124 37.9976 31.4853 37.9996ZM15.1265 15.3808C15.1971 16.8736 15.1265 31.3162 15.1265 31.4582H20.4646V22.4813C20.4428 22.0392 20.5042 21.597 20.6455 21.1775C20.8513 20.6131 21.2232 20.1242 21.7122 19.7752C22.2012 19.4263 22.7844 19.2335 23.3851 19.2223C25.1557 19.2223 26.0912 20.48 26.0912 22.8585V31.46H31.4293V22.2415C31.5599 20.2614 30.9331 18.3057 29.6758 16.7705C29.1098 16.1827 28.4258 15.7214 27.6687 15.417C26.9116 15.1126 26.0986 14.972 25.2833 15.0044C24.3139 14.9615 23.3515 15.1869 22.5019 15.6557C21.6524 16.1245 20.9487 16.8186 20.4682 17.6617V15.3808H15.1265ZM6.83178 15.3808V31.4582H12.1698V15.3808H6.83178ZM9.53789 7.63067C9.15676 7.59871 8.77312 7.64557 8.41089 7.76833C8.04866 7.8911 7.71559 8.08714 7.43242 8.34425C7.14926 8.60136 6.92208 8.91402 6.76503 9.26276C6.60797 9.6115 6.52441 9.98884 6.51956 10.3713C6.5147 10.7537 6.58865 11.1331 6.7368 11.4857C6.88494 11.8383 7.10411 12.1566 7.38065 12.4208C7.65719 12.6851 7.98518 12.8895 8.34418 13.0214C8.70318 13.1533 9.0855 13.2099 9.46732 13.1877H9.50351C9.88602 13.2193 10.271 13.1716 10.6342 13.0475C10.9974 12.9234 11.331 12.7256 11.6142 12.4666C11.8974 12.2075 12.124 11.8927 12.2799 11.542C12.4357 11.1912 12.5174 10.812 12.5199 10.4282C12.5223 10.0444 12.4454 9.66421 12.2941 9.3115C12.1427 8.95879 11.9201 8.64115 11.6402 8.3785C11.3603 8.11585 11.0292 7.91385 10.6676 7.78517C10.306 7.65648 9.92168 7.60388 9.53879 7.63067H9.53789Z" fill="#F7F7F7"/>
</svg>
