<svg width="200" height="60" viewBox="0 0 200 60" fill="none" xmlns="http://www.w3.org/2000/svg">
<path d="M44.5469 19.4375V26.25C43.651 25.2812 42.8073 24.5781 42.0156 24.1406C41.1302 23.7135 40.2135 23.5 39.2656 23.5C37.4844 23.5 36.0312 24.1094 34.9062 25.3281C34.5208 25.7656 34.2083 26.224 33.9688 26.7031C33.7292 27.1719 33.5469 27.7083 33.4219 28.3125C33.3073 28.9062 33.25 29.5104 33.25 30.125C33.25 31.9583 33.8125 33.4844 34.9375 34.7031C36.0729 35.901 37.5156 36.5 39.2656 36.5C40.2031 36.5 41.1198 36.276 42.0156 35.8281C42.8073 35.4219 43.651 34.724 44.5469 33.7344V40.5625C43.3906 41.1042 42.4062 41.4635 41.5938 41.6406C40.5833 41.8802 39.5938 42 38.625 42C37.3958 42 36.2396 41.849 35.1562 41.5469C34.0729 41.2552 33.1042 40.8073 32.25 40.2031C30.5417 39.0365 29.2396 37.599 28.3438 35.8906C27.4479 34.1198 27 32.1562 27 30C27 28.2708 27.2917 26.6823 27.875 25.2344C28.1354 24.5365 28.4635 23.8802 28.8594 23.2656C29.2656 22.6406 29.7865 21.9948 30.4219 21.3281C31.5156 20.2031 32.7448 19.3698 34.1094 18.8281C35.4635 18.276 36.9688 18 38.625 18C39.5729 18 40.5625 18.1146 41.5938 18.3438C42.6146 18.6146 43.599 18.9792 44.5469 19.4375Z" fill="url(#paint0_linear_205_110)"/>
<path d="M48.0625 41.4219V18.5469H54.2969V36.0781H62.0469V41.4219H48.0625Z" fill="url(#paint1_linear_205_110)"/>
<path d="M65.0938 41.4219V18.5469H79.1094V23.5625H71.1719V27.5312H78.6562V32.4375H71.1719V36.2969H79.1094V41.4219H65.0938Z" fill="url(#paint2_linear_205_110)"/>
<path d="M109.484 41.4219H103.656L102.312 31.5312C102.198 30.6458 102.115 29.8698 102.062 29.2031C101.99 28.5469 101.917 27.6146 101.844 26.4062C101.656 27.4896 101.365 28.6979 100.969 30.0312C100.885 30.2917 100.823 30.5156 100.781 30.7031L97.6719 41.4219H93.5156L90.4062 30.7031C90.375 30.526 90.3125 30.3021 90.2188 30.0312C89.7812 28.625 89.4948 27.4167 89.3594 26.4062C89.276 27.5521 89.1979 28.4062 89.125 28.9688C89.0938 29.2604 89.0469 29.6875 88.9844 30.25C88.9219 30.8125 88.875 31.2396 88.8438 31.5312L87.5 41.4219H81.7031L85.2344 18.5469H91.4062L94.8594 30.3438C94.9219 30.5625 94.9635 30.7031 94.9844 30.7656C95.2865 31.7448 95.4896 32.6406 95.5938 33.4531C95.6146 33.1719 95.6927 32.7135 95.8281 32.0781C95.8698 31.9219 96.026 31.3333 96.2969 30.3125L99.7812 18.5469H105.969L109.484 41.4219Z" fill="url(#paint3_linear_205_110)"/>
<path d="M112.844 41.4219V18.5469H126.859V23.5625H118.922V27.5312H126.406V32.4375H118.922V36.2969H126.859V41.4219H112.844Z" fill="url(#paint4_linear_205_110)"/>
<path d="M131 41.4219V18.5469H137.016L145.656 30.3125C145.875 30.6354 146.151 31.1198 146.484 31.7656C146.911 32.599 147.328 33.4583 147.734 34.3438C147.578 33.1458 147.49 32.3073 147.469 31.8281C147.406 31.0781 147.375 30.4167 147.375 29.8438V18.5469H153.359V41.4219H147.375L138.734 29.6094C138.609 29.4427 138.333 28.9531 137.906 28.1406C137.531 27.474 137.115 26.6302 136.656 25.6094C136.76 26.4219 136.859 27.2656 136.953 28.1406C136.995 29.1198 137.016 29.7812 137.016 30.125V41.4219H131Z" fill="url(#paint5_linear_205_110)"/>
<path d="M161.578 41.4219V23.9531H156.453V18.5469H172.938V23.9531H167.812V41.4219H161.578Z" fill="url(#paint6_linear_205_110)"/>
<defs>
<linearGradient id="paint0_linear_205_110" x1="27" y1="30.0278" x2="162.767" y2="30.0279" gradientUnits="userSpaceOnUse">
<stop stop-color="#EE63F4"/>
<stop offset="1" stop-color="#7B39FC"/>
</linearGradient>
<linearGradient id="paint1_linear_205_110" x1="27" y1="30.0278" x2="162.767" y2="30.0279" gradientUnits="userSpaceOnUse">
<stop stop-color="#EE63F4"/>
<stop offset="1" stop-color="#7B39FC"/>
</linearGradient>
<linearGradient id="paint2_linear_205_110" x1="27" y1="30.0278" x2="162.767" y2="30.0279" gradientUnits="userSpaceOnUse">
<stop stop-color="#EE63F4"/>
<stop offset="1" stop-color="#7B39FC"/>
</linearGradient>
<linearGradient id="paint3_linear_205_110" x1="27" y1="30.0278" x2="162.767" y2="30.0279" gradientUnits="userSpaceOnUse">
<stop stop-color="#EE63F4"/>
<stop offset="1" stop-color="#7B39FC"/>
</linearGradient>
<linearGradient id="paint4_linear_205_110" x1="27" y1="30.0278" x2="162.767" y2="30.0279" gradientUnits="userSpaceOnUse">
<stop stop-color="#EE63F4"/>
<stop offset="1" stop-color="#7B39FC"/>
</linearGradient>
<linearGradient id="paint5_linear_205_110" x1="27" y1="30.0278" x2="162.767" y2="30.0279" gradientUnits="userSpaceOnUse">
<stop stop-color="#EE63F4"/>
<stop offset="1" stop-color="#7B39FC"/>
</linearGradient>
<linearGradient id="paint6_linear_205_110" x1="27" y1="30.0278" x2="162.767" y2="30.0279" gradientUnits="userSpaceOnUse">
<stop stop-color="#EE63F4"/>
<stop offset="1" stop-color="#7B39FC"/>
</linearGradient>
</defs>
</svg>
