<svg width="38" height="38" viewBox="0 0 38 38" fill="none" xmlns="http://www.w3.org/2000/svg">
<path d="M31.4853 37.9996H6.51421C4.78712 37.9976 3.13132 37.3107 1.91008 36.0895C0.688847 34.8682 0.0019158 33.2124 0 31.4853V6.51421C0.0019158 4.78712 0.688847 3.13132 1.91008 1.91008C3.13132 0.688847 4.78712 0.0019158 6.51421 0L31.4853 0C33.2124 0.0019158 34.8682 0.688847 36.0895 1.91008C37.3107 3.13132 37.9976 4.78712 37.9996 6.51421V31.4853C37.9976 33.2124 37.3107 34.8682 36.0895 36.0895C34.8682 37.3107 33.2124 37.9976 31.4853 37.9996ZM6.51421 27.9179C8.94527 29.5226 11.7938 30.3786 14.7067 30.3797C24.2265 30.3797 29.9147 22.4605 29.9147 14.8054L29.8966 14.0969C30.9524 13.3248 31.8587 12.3667 32.571 11.2696C31.5979 11.7113 30.563 12.0021 29.5021 12.1318C30.6257 11.4399 31.4612 10.365 31.8545 9.10542C30.8075 9.74115 29.6584 10.1908 28.458 10.4345C27.9629 9.89182 27.3605 9.45785 26.689 9.16007C26.0174 8.8623 25.2914 8.70721 24.5568 8.70461C23.1222 8.72251 21.7533 9.3088 20.7505 10.3348C19.7477 11.3609 19.1929 12.7428 19.2079 14.1775C19.2073 14.5972 19.2538 15.0157 19.3463 15.4251C17.1845 15.3171 15.0728 14.7355 13.1605 13.7215C11.289 12.7327 9.64387 11.3649 8.33005 9.70527C7.64812 10.9104 7.43972 12.3264 7.74552 13.6769C8.05132 15.0274 8.84937 16.2155 9.98393 17.0093C9.1333 16.9792 8.3026 16.7436 7.56282 16.3226V16.3914C7.55412 17.6425 7.97547 18.8586 8.75633 19.8361C9.53719 20.8136 10.6302 21.4932 11.8522 21.7611C11.3934 21.8877 10.9196 21.9522 10.4435 21.9529C10.1056 21.9534 9.76851 21.9194 9.43746 21.8516C9.76473 22.9292 10.4232 23.8764 11.3194 24.5585C12.2156 25.2407 13.304 25.6231 14.4299 25.6515C12.5522 27.1718 10.2077 27.9982 7.79172 27.9912C7.36482 27.9915 6.93827 27.967 6.51421 27.9179Z" fill="#F7F7F7"/>
</svg>
