<svg width="38" height="38" viewBox="0 0 38 38" fill="none" xmlns="http://www.w3.org/2000/svg">
<path d="M33.9286 0H4.07143C1.82366 0 0 1.82366 0 4.07143V33.9286C0 36.1763 1.82366 38 4.07143 38H33.9286C36.1763 38 38 36.1763 38 33.9286V4.07143C38 1.82366 36.1763 0 33.9286 0ZM23.521 32.546C22.8085 32.6732 22.5455 32.2321 22.5455 31.8674C22.5455 31.4094 22.5625 29.0683 22.5625 27.1768C22.5625 25.8536 22.1214 25.0138 21.604 24.5728C24.7424 24.225 28.0504 23.7924 28.0504 18.3723C28.0504 16.8286 27.4991 16.0567 26.6 15.0643C26.7442 14.6996 27.2277 13.1982 26.4558 11.2473C25.2768 10.8826 22.5795 12.7656 22.5795 12.7656C21.4598 12.4518 20.2469 12.2906 19.0509 12.2906C17.8549 12.2906 16.642 12.4518 15.5223 12.7656C15.5223 12.7656 12.825 10.8826 11.646 11.2473C10.8741 13.1897 11.3491 14.6911 11.5018 15.0643C10.6027 16.0567 10.1786 16.8286 10.1786 18.3723C10.1786 23.767 13.3424 24.225 16.4808 24.5728C16.0737 24.9375 15.7089 25.5652 15.5817 26.4643C14.7759 26.829 12.7147 27.4567 11.4848 25.2853C10.7129 23.9451 9.32187 23.8348 9.32187 23.8348C7.94777 23.8179 9.22857 24.7 9.22857 24.7C10.1446 25.1241 10.7893 26.7527 10.7893 26.7527C11.6121 29.2719 15.5478 28.4237 15.5478 28.4237C15.5478 29.6027 15.5647 31.5196 15.5647 31.8674C15.5647 32.2321 15.3103 32.6732 14.5893 32.546C8.99107 30.6714 5.07232 25.3446 5.07232 19.1187C5.07232 11.3321 11.0268 5.42009 18.8134 5.42009C26.6 5.42009 32.9107 11.3321 32.9107 19.1187C32.9192 25.3446 29.1192 30.6799 23.521 32.546ZM15.2 27.3634C15.0388 27.3973 14.8862 27.3295 14.8692 27.2192C14.8522 27.092 14.9625 26.9817 15.1237 26.9478C15.2848 26.9308 15.4375 26.9987 15.4545 27.1089C15.4799 27.2192 15.3696 27.3295 15.2 27.3634ZM14.3942 27.2871C14.3942 27.3973 14.267 27.4906 14.0973 27.4906C13.9107 27.5076 13.7835 27.4143 13.7835 27.2871C13.7835 27.1768 13.9107 27.0835 14.0804 27.0835C14.2415 27.0665 14.3942 27.1598 14.3942 27.2871ZM13.2321 27.1938C13.1982 27.304 13.0286 27.3549 12.8844 27.304C12.7232 27.2701 12.6129 27.1429 12.6469 27.0326C12.6808 26.9223 12.8504 26.8714 12.9946 26.9054C13.1643 26.9562 13.2746 27.0835 13.2321 27.1938ZM12.1888 26.7357C12.1125 26.829 11.9513 26.8121 11.8241 26.6848C11.6969 26.5746 11.6629 26.4134 11.7478 26.3371C11.8241 26.2437 11.9853 26.2607 12.1125 26.3879C12.2228 26.4982 12.2652 26.6679 12.1888 26.7357ZM11.417 25.9638C11.3406 26.0147 11.1964 25.9638 11.1031 25.8366C11.0098 25.7094 11.0098 25.5652 11.1031 25.5058C11.1964 25.4295 11.3406 25.4888 11.417 25.6161C11.5103 25.7433 11.5103 25.896 11.417 25.9638ZM10.8656 25.1411C10.7893 25.2174 10.6621 25.175 10.5687 25.0902C10.4754 24.9799 10.4585 24.8527 10.5348 24.7933C10.6112 24.717 10.7384 24.7594 10.8317 24.8442C10.925 24.9545 10.942 25.0817 10.8656 25.1411ZM10.2973 24.5134C10.2634 24.5897 10.1531 24.6067 10.0598 24.5473C9.94955 24.4964 9.89866 24.4031 9.93259 24.3268C9.96652 24.2759 10.0598 24.2504 10.1701 24.2929C10.2804 24.3522 10.3313 24.4455 10.2973 24.5134Z" fill="#F7F7F7"/>
</svg>
